<svg width="164" height="48" viewBox="0 0 164 48" fill="none" xmlns="http://www.w3.org/2000/svg">
          <path d="M52.1979 15.6745C54.8016 15.6745 57.2825 15.6745 59.8227 15.6745C59.8227 25.2346 59.8227 34.7402 59.8227 44.3004C57.2986 44.3004 54.8403 44.3004 52.2274 44.3004C52.2274 42.9089 52.2274 41.5263 52.2274 40.1439C52.1504 40.1235 52.0755 40.103 51.9982 40.0826C51.896 40.2026 51.7848 40.3181 51.6917 40.4446C49.1108 43.8907 45.572 45.2167 41.3907 44.8865C34.8192 44.3683 30.4337 39.5374 29.2942 33.4596C28.4794 29.1218 29.0014 24.9427 31.3916 21.1277C34.8466 15.6157 41.7903 13.4751 47.5853 16.1021C49.2651 16.8647 50.2481 17.6974 52.1504 20.0371C52.1684 19.1704 52.1888 18.478 52.1979 17.7856C52.2024 17.1045 52.1979 16.4257 52.1979 15.6745ZM51.9687 29.9726C51.9641 25.5922 48.793 22.3948 44.4598 22.4016C40.2082 22.4084 37.0529 25.626 37.0484 29.9546C37.0438 34.3195 40.2536 37.6162 44.5006 37.6094C48.7817 37.6027 51.9732 34.3399 51.9687 29.9726Z" fill="currentcolor"></path>
          <path d="M123.076 44.2956C120.515 44.2956 118.061 44.2956 115.483 44.2956C115.483 42.852 115.483 41.4672 115.483 40.0824C115.374 40.0169 115.267 39.9535 115.158 39.8878C115.119 40.0258 115.113 40.1887 115.033 40.2996C112.527 43.8091 108.993 45.2031 104.821 44.8862C99.1981 44.4607 95.3483 41.413 93.3711 36.229C91.4099 31.0879 91.73 25.981 94.6105 21.2089C97.8611 15.8259 104.496 13.6061 110.244 15.8508C112.33 16.6653 114.001 17.9958 115.285 19.9893C115.614 19.1973 115.43 18.4914 115.467 17.8103C115.503 17.1315 115.474 16.4481 115.474 15.6199C118.046 15.5996 120.524 15.5815 123.071 15.6381C123.076 25.2139 123.076 34.7083 123.076 44.2956ZM107.758 22.4036C103.495 22.4059 100.308 25.6078 100.288 29.9136C100.265 34.2989 103.525 37.625 107.829 37.6092C112.023 37.5934 115.213 34.3306 115.256 30.0132C115.294 25.6958 112.051 22.4014 107.758 22.4036Z" fill="currentcolor"></path>
          <path d="M17.9269 28.9745C22.149 34.0635 26.3255 39.0958 30.6249 44.2798C30.1915 44.3161 29.9575 44.3521 29.7237 44.3545C26.9635 44.359 24.2032 44.3386 21.4453 44.3725C20.7893 44.3816 20.3875 44.1372 19.9948 43.6438C16.9871 39.8787 13.9545 36.1316 10.9286 32.3799C10.6857 32.0792 10.427 31.7962 10.0751 31.3889C9.76414 32.3597 9.93665 33.1832 9.90715 33.9888C9.87538 34.8555 9.90034 35.7267 9.90034 36.5955C9.90034 37.4283 9.90034 38.2609 9.90034 39.0937C9.90034 39.9625 9.90034 40.8312 9.90034 41.7003C9.90034 42.5307 9.90034 43.3589 9.90034 44.3453C7.21044 44.3725 4.58866 44.3545 1.90332 44.359C1.90332 30.2033 1.90332 16.1743 1.90332 1.98916C4.52964 1.9258 7.15143 1.97332 9.90034 1.95748C9.90034 6.17522 9.90034 10.2912 9.90034 14.4048C9.90034 18.5071 9.89806 22.6118 9.90034 26.7142C9.98887 26.7459 10.0774 26.7752 10.1636 26.8068C10.4247 26.5308 10.6948 26.2616 10.9468 25.9786C13.7774 22.7724 16.6171 19.5752 19.425 16.3485C19.8949 15.8077 20.3784 15.5814 21.1002 15.5928C23.5699 15.6335 26.0397 15.6063 28.5071 15.6108C28.8544 15.6108 29.2017 15.6425 29.7919 15.672C25.7558 20.1974 21.8629 24.5621 17.9269 28.9745Z" fill="currentcolor"></path>
          <path d="M82.8478 44.3255C79.3724 44.3255 76.0039 44.3255 72.5127 44.3255C69.0147 34.8177 65.5099 25.3005 61.9688 15.6748C64.9992 15.6748 67.8843 15.6748 70.867 15.6748C73.1165 22.3272 75.3682 28.9909 77.6201 35.6548C77.7041 35.6593 77.7881 35.6639 77.8721 35.6661C79.0795 32.367 80.1216 29.0092 81.2542 25.6828C82.3846 22.3657 83.4766 19.0372 84.5979 15.6748C87.5283 15.6748 90.409 15.6748 93.4462 15.6748C89.8959 25.2755 86.3866 34.7586 82.8478 44.3255Z" fill="currentcolor"></path>
          <path d="M136.805 36.3943C138.955 36.8786 140.962 37.331 143.082 37.8086C142.705 40.2069 142.056 42.4857 141.579 44.9498C136.801 43.8952 132.116 42.8613 127.326 41.8068C130.4 27.9883 133.448 14.276 136.526 0.432617C139.175 0.894216 141.713 1.55493 144.417 2.12515C141.874 13.5791 139.348 24.9516 136.805 36.3943Z" fill="currentcolor"></path>
          <path d="M162.084 44.316C157.276 44.316 152.527 44.316 147.79 44.316C147.549 43.524 147.451 4.15689 147.69 2.00503C150.296 1.90095 152.92 1.98014 155.653 1.95073C155.653 13.6581 155.653 25.2569 155.653 36.9824C157.843 36.9824 159.927 36.9824 161.972 36.9824C162.231 37.8648 162.292 42.7208 162.084 44.316Z" fill="currentcolor"></path>
        </svg>